<?xml version="1.0" encoding="UTF-8"?>
<svg id="Layer_1" data-name="Layer 1" xmlns="http://www.w3.org/2000/svg" xmlns:xlink="http://www.w3.org/1999/xlink" viewBox="0 0 1280 870">
  <defs>
    <style>
      .cls-1 {
        fill: url(#linear-gradient-2);
      }

      .cls-2 {
        fill: #fff;
      }

      .cls-3 {
        fill: url(#linear-gradient-3);
      }

      .cls-4 {
        fill: url(#linear-gradient);
      }
    </style>
    <linearGradient id="linear-gradient" x1="272.8" y1="712.48" x2="272.8" y2="146.14" gradientUnits="userSpaceOnUse">
      <stop offset="0" stop-color="#74c6cb"/>
      <stop offset="1" stop-color="#007e81"/>
    </linearGradient>
    <linearGradient id="linear-gradient-2" x1="920.96" y1="711.55" x2="920.96" y2="21.29" gradientUnits="userSpaceOnUse">
      <stop offset="0" stop-color="#5fc0c4"/>
      <stop offset="1" stop-color="#007e81"/>
    </linearGradient>
    <linearGradient id="linear-gradient-3" x1="580.81" y1="711.43" x2="580.81" y2="89.76" xlink:href="#linear-gradient-2"/>
  </defs>
  <g>
    <path class="cls-2" d="M131.86,762.51c31.95,0,51.02,15.9,51.02,40.58,0,23.01-16.35,33.91-46.63,33.91h-9.99c-2.12,0-3.03.3-3.03,3.03v1.51c0,18.47,10.14,13.93,10.14,22.1,0,3.63-2.12,4.84-8.93,4.84h-27.71c-6.51,0-8.93-1.21-8.93-4.84,0-8.18,10.45-3.63,10.45-22.1v-50.87c0-20.89-10.45-14.23-10.45-23.32,0-3.63,2.42-4.84,8.93-4.84h35.12ZM157.75,805.2c0-21.35-13.17-32.55-26.19-32.55-7.72,0-8.33.91-8.33,4.09v44.66c0,3.78,3.03,5.15,11.66,5.15,14.53,0,22.86-8.18,22.86-21.35Z"/>
    <path class="cls-2" d="M191.21,819.43c0-32.25,24.38-58.44,56.77-58.44,30.43,0,50.27,22.56,50.27,51.93,0,32.4-23.92,57.08-56.62,57.08-28.31,0-50.42-20.74-50.42-50.57ZM274.03,825.79c0-24.68-13.02-52.69-33.91-52.69-16.65,0-24.38,14.23-24.38,31.34,0,24.38,12.87,52.08,34.37,52.08,17.26,0,23.92-13.47,23.92-30.73Z"/>
    <path class="cls-2" d="M310.82,819.43c0-32.25,24.38-58.44,56.78-58.44,30.43,0,50.27,22.56,50.27,51.93,0,32.4-23.92,57.08-56.62,57.08-28.31,0-50.42-20.74-50.42-50.57ZM393.64,825.79c0-24.68-13.02-52.69-33.91-52.69-16.65,0-24.38,14.23-24.38,31.34,0,24.38,12.87,52.08,34.37,52.08,17.26,0,23.92-13.47,23.92-30.73Z"/>
    <path class="cls-2" d="M509.01,842.14c-.3,8.93-1.21,15.14-2.42,19.53-1.21,4.84-3.79,6.81-12.87,6.81h-56.77c-6.51,0-8.93-1.21-8.93-4.84,0-9.08,10.45-2.42,10.45-23.31v-50.87c0-18.47-10.14-13.93-10.14-22.11,0-3.63,2.12-4.84,8.93-4.84h27.71c6.51,0,8.93,1.21,8.93,4.84,0,8.17-10.45,3.63-10.45,22.11v61.32c0,4.69,2.12,6.81,11.05,6.81l5.45-.15c9.23,0,12.72-6.36,18.02-17.41,2.57-5.15,4.69-6.36,7.42-5.75,3.48.91,3.78,3.18,3.63,7.87Z"/>
    <path class="cls-2" d="M568.67,866.67c-5,0-5.45,3.33-8.78,3.33-2.73,0-4.84-1.66-5.9-8.17-1.36-8.48-2.42-15.75-2.73-22.56-.15-4.69.76-7.42,3.79-7.42s4.09,1.97,7.27,6.96c4.39,7.72,13.63,19.83,30.58,19.83,9.39,0,13.17-5.91,13.32-11.81,0-9.39-12.11-15.29-24.53-21.8-17.26-8.93-29.07-14.84-29.07-32.4s16.96-31.49,38.91-31.49c7.72,0,14.38,2.27,17.56,2.27,3.94,0,4.69-2.27,8.02-2.27,2.73,0,4.84,1.36,6.21,7.87,1.21,5.91,2.27,12.41,2.57,18.77.3,4.69-.91,7.57-4.39,7.57-2.57,0-4.39-2.27-7.72-7.11-5.15-7.27-13.02-16.5-23.92-16.5-8.48,0-13.17,4.84-13.17,11.66,0,8.63,7.57,13.63,23.92,22.1,18.02,9.23,31.19,15.29,31.19,31.79.15,20.74-19.98,32.55-40.73,32.55-11.2,0-18.62-3.18-22.41-3.18Z"/>
    <path class="cls-2" d="M729.46,842.14c-.3,8.93-1.21,15.14-2.42,19.53-1.36,4.84-3.94,6.81-12.87,6.81h-62.53c-6.51,0-8.93-1.21-8.93-4.84,0-9.08,10.45-2.42,10.45-23.31v-49.66c0-20.89-10.45-14.23-10.45-23.32,0-3.63,2.42-4.84,8.93-4.84h59.65c8.93,0,11.66.91,13.32,5.6,1.51,4.09,2.88,9.24,4.09,15.44.91,4.54.45,7.42-2.42,8.33-3.03,1.06-5.15-.15-7.72-4.09-6.36-9.54-12.72-14.38-22.26-14.38h-6.51c-9.54,0-11.66,2.12-11.66,6.96v14.23c0,6.06,3.33,7.42,9.54,7.42h.3c11.05,0,10.9-5.3,16.5-5.3,3.33,0,4.24,1.97,4.84,4.39l3.94,19.38c1.21,5.3.15,6.66-3.03,7.42-8.02,1.67-9.08-15.14-22.26-15.14h-.3c-6.21,0-9.54,1.21-9.54,7.42v30.43c0,4.84,2.12,6.97,12.87,6.97l9.39-.15c9.24,0,12.57-6.36,18.02-17.41,2.57-5.15,4.69-6.36,7.27-5.75,3.63.91,3.94,3.18,3.78,7.87Z"/>
    <path class="cls-2" d="M826.06,847.75c6.21,10.75,12.87,8.48,12.87,15.9,0,3.63-2.12,4.84-8.63,4.84h-25.28c-4.84,0-7.27-1.21-7.27-4.84,0-5.91,7.87-7.42,2.88-16.65l-7.57-13.47c-2.12-3.94-4.54-5-10.14-5.91-5-.6-9.24-.91-9.24,3.48v10.45c0,18.47,10.14,13.93,10.14,22.1,0,3.63-2.12,4.84-8.93,4.84h-27.71c-6.51,0-8.93-1.21-8.93-4.84,0-8.18,10.45-3.63,10.45-22.1v-50.87c0-20.89-10.45-14.23-10.45-23.32,0-3.63,2.42-4.84,8.93-4.84h35.58c32.1,0,48.3,16.2,48.3,34.37,0,13.32-5.9,23.77-17.86,28.92l12.87,21.95ZM805.78,798.99c0-14.84-10.14-26.34-23.92-26.34-7.12,0-8.18.91-8.18,4.09v34.52c0,4.39,5.15,5.9,11.35,6.66,15.14,2.12,20.74-8.63,20.74-18.92Z"/>
    <path class="cls-2" d="M932.96,762.66c5.3,0,8.63.91,8.63,4.39,0,5.91-8.78,4.84-12.87,15.59l-31.34,80.24c-1.21,3.33-2.27,5-9.08,5.75-8.02,1.06-9.69.61-11.2-3.18l-32.7-82.06c-5-12.57-11.2-9.84-11.2-16.05,0-3.63,2.12-4.84,8.48-4.84h27.71c5.3,0,7.72,1.21,7.72,4.84,0,6.36-10.3,4.09-5.6,16.05l22.26,56.62,21.5-57.38c4.39-11.66-4.09-9.69-4.09-15.59,0-3.63,3.33-4.39,7.57-4.39h14.23Z"/>
    <path class="cls-2" d="M955.67,789.46c0-18.47-10.14-13.93-10.14-22.11,0-3.63,2.12-4.84,8.93-4.84h27.71c6.51,0,8.93,1.21,8.93,4.84,0,8.17-10.45,3.63-10.45,22.11v52.08c0,18.47,10.14,13.93,10.14,22.1,0,3.63-2.12,4.84-8.93,4.84h-27.71c-6.51,0-8.93-1.21-8.93-4.84,0-8.18,10.45-3.63,10.45-22.1v-52.08Z"/>
    <path class="cls-2" d="M1000.8,817.47c0-31.04,24.38-56.47,56.02-56.47,9.69,0,15.14,2.73,18.47,2.73,3.94,0,4.84-2.57,8.78-2.57,2.73,0,4.54,1.36,6.51,7.87,1.82,5.91,3.48,12.56,4.84,21.65.61,4.69-.15,7.42-4.09,7.72-3.48.3-4.84-2.27-8.33-7.27-7.12-10.3-16.05-19.08-28.01-19.08-17.87,0-28.62,14.38-28.62,34.37,0,25.28,12.72,47.99,36.03,47.99,11.2,0,20.14-4.84,28.61-13.78,3.94-4.24,8.48.3,6.06,5.3-6.21,13.93-23.32,24.07-43.15,24.07-30.58,0-53.14-19.83-53.14-52.53Z"/>
    <path class="cls-2" d="M1192.17,842.14c-.3,8.93-1.21,15.14-2.42,19.53-1.36,4.84-3.94,6.81-12.87,6.81h-62.53c-6.51,0-8.93-1.21-8.93-4.84,0-9.08,10.45-2.42,10.45-23.31v-49.66c0-20.89-10.45-14.23-10.45-23.32,0-3.63,2.42-4.84,8.93-4.84h59.65c8.93,0,11.66.91,13.32,5.6,1.51,4.09,2.88,9.24,4.09,15.44.91,4.54.45,7.42-2.42,8.33-3.03,1.06-5.15-.15-7.72-4.09-6.36-9.54-12.72-14.38-22.26-14.38h-6.51c-9.54,0-11.66,2.12-11.66,6.96v14.23c0,6.06,3.33,7.42,9.54,7.42h.3c11.05,0,10.9-5.3,16.5-5.3,3.33,0,4.24,1.97,4.84,4.39l3.94,19.38c1.21,5.3.15,6.66-3.03,7.42-8.02,1.67-9.08-15.14-22.26-15.14h-.3c-6.21,0-9.54,1.21-9.54,7.42v30.43c0,4.84,2.12,6.97,12.87,6.97l9.39-.15c9.24,0,12.57-6.36,18.02-17.41,2.57-5.15,4.69-6.36,7.27-5.75,3.63.91,3.94,3.18,3.78,7.87Z"/>
  </g>
  <g>
    <path class="cls-4" d="M429.98,634.27c-9.65,1.27-28.33-10.31-41.38-21.68-1.82-123.54-3.64-247.09-5.46-370.63-.31-20.96,4.41-33.04,13.28-43-.02-1.34-.04-2.68-.06-4.02-29.74-16.04-66.65-36.34-93.3-48.8-20.66,28.86-41.11,57.62-61.39,86.04-.26.1-.52.2-.78.3-18.22-7.84-46.38-19.07-70.63-27.33-18.6,33.3-34.89,59.79-56.27,93.22.49.27.98.53,1.48.8,9.59-4.4,22.97-5.82,37.4.11.72,104.63,1.45,209.26,2.17,313.89.2,27.81-6.1,37.52-13.23,43.75,0,1.11.01,2.21.02,3.32,15.16,10.62,40.91,30.91,65.25,51.35,16.63-18.53,38.7-42.71,57.6-63.18,0-.31,0-.62-.01-.93-10.55-8.76-17.81-12.93-27.52-21.37-1.71-118.78-3.42-237.55-5.13-356.33,4.59-6.23,27.02-35.7,27.04-35.74,12.75,5.71,26.37,10.68,40.94,19.84,1.85,114.65,3.71,229.29,5.56,343.94.46,28.69-4.96,40.43-12.88,46.47.02,1.26.04,2.52.06,3.79,17.03,12.26,57.73,45.33,78.08,64.39,18.9-22.68,44.95-56.4,60.81-76.23-.55-.66-1.09-1.33-1.64-1.99ZM195.49,461.08c.32,27.42,1.15,98.38,1.46,124.94-1.2,14.04-2.37,28.03-4.02,42-1.96-13.68-3.44-27.33-4.95-40.93-.28-26.01-1.05-96.91-1.34-123.87-.29-27.19-1.05-97.55-1.38-123.86,1.15-14.25,2.29-28.53,3.94-43.1,1.97,13.08,3.42,26.45,4.89,39.86.25,26.25,1.09,97.76,1.41,124.95ZM346.92,427.74c.48,30.62,1.74,109.83,2.2,139.48-1.14,15.6-2.24,31.18-3.82,46.73-2.07-15.36-3.66-30.71-5.29-46.02-.46-29.14-1.73-108.59-2.21-138.79-.48-30.46-1.74-109.3-2.26-138.78,1.11-15.74,2.21-31.5,3.87-47.44,2.15,14.98,3.74,30.14,5.35,45.33.41,29.3,1.67,109.14,2.16,139.49Z"/>
    <path class="cls-1" d="M1078.74,203.53c.14-.6-38.36,22.23-57.5,34.76,0,.3,0,.61-.01.91,9.24,10.97,16.9,20.41,26.05,33.06-1.58,125.14-3.16,250.29-4.74,375.43-.54.27-1.07.53-1.61.8-22.98-14.61-48.27-32.96-66.45-48.52,1.76-111.26,3.53-222.52,5.29-333.79.49-30.98,7.74-36.95,14.1-39.27.02-1.55.05-3.09.07-4.64-18.59-22.73-46.77-60.36-62.58-82.19-15.53,14.09-42.7,36.09-60.92,51.11,0,.33,0,.67-.01,1,10.47,10.44,17.66,19.16,27.22,31.41-2.14,137.33-4.27,274.66-6.41,412-.54.31-1.08.62-1.62.92-19.87-13.44-66.88-49.77-94.15-73.72.01-1.03.02-2.05.04-3.08,16.37-16.73,28.26-58.58,28.67-90.02.77-59.25,1.54-118.51,2.31-177.76.82-62.88-12.66-97.95-33.87-127.1-30.19-41.81-44.32-60.09-44.1-84.02.2-23.89,7.89-41.63,18.9-54.33-2.22-1.74-4.43-3.48-6.65-5.21-25.29,13.47-56.61,49.47-56.84,96.69-.18,32.45,7.25,49.74,17.91,72.58,14.75,31.55,20.38,48.77,19.99,96.59-.77,94.29-1.53,188.58-2.3,282.87-.25,30.15-5.19,41.48-14.13,48.63-.01,1.39-.02,2.78-.03,4.17,34.56,26.72,79.96,65.51,106.1,88.66,23.57-22.24,48.79-41.9,74.81-61.56,25.42,18.48,50.72,40.22,76.06,61.64,42.23-33.47,90.07-65.89,142.27-91.24.25-97.34.49-194.67.74-292,.07-26.95,5.31-34.86,12.67-36.36v-3.21c-17.63-23.46-44.32-62.41-59.28-85.21ZM784.14,385.4c-.27,24.66-.95,88.46-1.21,112.34-1.53,12.4-3.02,24.81-5,37.22-1.71-12.59-2.94-25.17-4.21-37.76.24-23.65.9-88.11,1.16-112.63.26-26.18.95-87.24,1.11-112.63,1.52-12.35,3.02-24.7,5.1-36.95,1.81,12.75,3.06,25.41,4.31,38.06-.38,24.91-.95,86.52-1.26,112.34ZM941.12,418.14c-.49,29.99-1.74,107.6-2.21,136.65-1.63,15.05-3.21,30.14-5.28,45.24-1.58-15.35-2.67-30.71-3.8-46.11.47-28.85,1.74-107.5,2.22-137.4.49-30.16,1.75-108.19,2.17-137.41,1.6-14.92,3.19-29.81,5.32-44.49,1.64,15.77,2.73,31.34,3.84,46.88-.52,28.68-1.78,106.9-2.26,136.64ZM1092.25,450.8c-.2,26.45-.73,94.9-.93,120.51-1.46,13.19-2.88,26.43-4.79,39.69-1.69-13.64-2.89-27.31-4.13-41.02.23-25.54.84-95.17,1.08-121.64.24-26.7.85-95.79,1.03-121.66,1.41-12.98,2.8-25.93,4.7-38.56,1.68,14.28,2.84,28.25,4.02,42.18-.24,25.28-.77,94.26-.97,120.49Z"/>
    <path class="cls-3" d="M656.76,601.07c-5.68,7.32-11.35,11.51-17.01,11.5-14.58.07-34.68-10.81-84.35-50.89-.28-53.41-.55-106.83-.83-160.24,46.52-34.75,118.43-79.44,148.37-105.52-22.77-48.5-65.88-153.95-85.34-206.15-49.58,40.23-106.92,75.73-149.7,96.48,1.32,123.58,2.64,247.16,3.96,370.74.34,31.93-3.6,41.35-13.18,50.88.02,1.37.03,2.74.05,4.1,41.49,24.13,105.48,70.97,139.99,99.47,19.96-29.45,58.71-80,77.43-102.86-4.02-5.64-8.05-11.27-12.08-16.91-2.44,3.13-4.87,6.27-7.31,9.41ZM553.34,162.64c1.39-.44,2.78-.88,4.17-1.32,14.43,38.68,51.23,117.51,71.81,160.89-17.36,14.62-49.49,35.14-74.88,51.99-.36-70.52-.73-141.04-1.1-211.56ZM514.05,389.59c.24,30.95.88,111.02,1.12,140.99-1.27,15.72-2.5,31.42-4.21,47.12-1.97-15.6-3.46-31.2-4.99-46.78-.25-29.55-.94-110.1-1.2-140.73-.26-30.89-.94-110.82-1.25-140.72,1.26-15.77,2.51-31.56,4.34-47.41,2.09,15.45,3.6,30.98,5.12,46.52.18,29.61.83,110.31,1.07,141Z"/>
  </g>
  <path class="cls-2" d="M1217.06,416.04l3.71-10.03,3.71,10.03c7.8,21.07,24.41,37.69,45.49,45.49l10.03,3.71-10.03,3.71c-21.07,7.8-37.69,24.41-45.49,45.49l-3.71,10.03-3.71-10.03c-7.8-21.07-24.41-37.69-45.49-45.49l-10.03-3.71,10.03-3.71c21.07-7.8,37.69-24.41,45.49-45.49Z"/>
  <path class="cls-2" d="M55.52,416.04l3.71-10.03,3.71,10.03c7.8,21.07,24.41,37.69,45.49,45.49l10.03,3.71-10.03,3.71c-21.07,7.8-37.69,24.41-45.49,45.49l-3.71,10.03-3.71-10.03c-7.8-21.07-24.41-37.69-45.49-45.49l-10.03-3.71,10.03-3.71c21.07-7.8,37.69-24.41,45.49-45.49Z"/>
</svg>